<?xml version="1.0" encoding="iso-8859-1"?>
<!-- Generator: Adobe Illustrator 19.0.0, SVG Export Plug-In . SVG Version: 6.00 Build 0)  -->
<svg version="1.1" id="Layer_1" xmlns="http://www.w3.org/2000/svg" xmlns:xlink="http://www.w3.org/1999/xlink" x="0px" y="0px"
	 viewBox="0 0 512 512" style="enable-background:new 0 0 512 512;" xml:space="preserve">
<g>
	<g>
		<g>
			<path d="M128,273.067h51.2c4.71,0,8.533-3.823,8.533-8.533c0-4.71-3.823-8.533-8.533-8.533h-42.667v-17.067h8.533
				c4.71,0,8.533-3.823,8.533-8.533s-3.823-8.533-8.533-8.533h-8.533V204.8h8.533c4.71,0,8.533-3.823,8.533-8.533
				s-3.823-8.533-8.533-8.533h-8.533v-17.067H179.2c4.71,0,8.533-3.823,8.533-8.533c0-4.71-3.823-8.533-8.533-8.533h-42.667v-17.067
				h8.533c4.71,0,8.533-3.823,8.533-8.533s-3.823-8.533-8.533-8.533h-8.533V102.4h8.533c4.71,0,8.533-3.823,8.533-8.533
				c0-4.71-3.823-8.533-8.533-8.533h-8.533V68.267H179.2c4.71,0,8.533-3.823,8.533-8.533S183.91,51.2,179.2,51.2h-42.667V17.067H256
				v247.467c0,4.71,3.823,8.533,8.533,8.533c4.71,0,8.533-3.823,8.533-8.533v-256c0-4.71-3.823-8.533-8.533-8.533H128
				c-4.71,0-8.533,3.823-8.533,8.533v256C119.467,269.244,123.29,273.067,128,273.067z"/>
			<path d="M8.533,273.067c4.71,0,8.533-3.823,8.533-8.533V42.667c0-12.442,13.158-25.6,25.6-25.6h51.2
				c4.71,0,8.533-3.823,8.533-8.533S98.577,0,93.867,0h-51.2C20.736,0,0,20.736,0,42.667v221.867
				C0,269.244,3.823,273.067,8.533,273.067z"/>
			<path d="M384,102.4c-4.71,0-8.533,3.823-8.533,8.533v153.6c0,4.71,3.823,8.533,8.533,8.533s8.533-3.823,8.533-8.533v-153.6
				C392.533,106.223,388.71,102.4,384,102.4z"/>
			<path d="M332.8,110.933v153.6c0,4.71,3.823,8.533,8.533,8.533s8.533-3.823,8.533-8.533v-153.6c0-4.71-3.823-8.533-8.533-8.533
				S332.8,106.223,332.8,110.933z"/>
			<path d="M349.867,494.933h-8.533V486.4c0-4.71-3.823-8.533-8.533-8.533c-4.71,0-8.533,3.823-8.533,8.533v8.533H307.2V486.4
				c0-4.71-3.823-8.533-8.533-8.533s-8.533,3.823-8.533,8.533v8.533h-17.067V486.4c0-4.71-3.823-8.533-8.533-8.533
				c-4.71,0-8.533,3.823-8.533,8.533v8.533h-17.067V486.4c0-4.71-3.823-8.533-8.533-8.533s-8.533,3.823-8.533,8.533v8.533H204.8
				V486.4c0-4.71-3.823-8.533-8.533-8.533s-8.533,3.823-8.533,8.533v8.533h-17.067V486.4c0-4.71-3.823-8.533-8.533-8.533
				c-4.71,0-8.533,3.823-8.533,8.533v8.533h-17.067V486.4c0-4.71-3.823-8.533-8.533-8.533s-8.533,3.823-8.533,8.533v8.533H102.4
				V486.4c0-4.71-3.823-8.533-8.533-8.533c-4.71,0-8.533,3.823-8.533,8.533v8.533H68.267V486.4c0-4.71-3.823-8.533-8.533-8.533
				S51.2,481.69,51.2,486.4v8.533h-8.533c-4.71,0-8.533,3.823-8.533,8.533S37.956,512,42.667,512h307.2
				c4.71,0,8.533-3.823,8.533-8.533S354.577,494.933,349.867,494.933z"/>
			<path d="M298.667,273.067c4.71,0,8.533-3.823,8.533-8.533V79.249l34.133-54.613l27.273,43.631H332.8
				c-4.71,0-8.533,3.823-8.533,8.533s3.823,8.533,8.533,8.533H384c3.106,0,5.956-1.681,7.467-4.395
				c1.502-2.714,1.417-6.033-0.23-8.661L348.57,4.011c-3.123-4.992-11.349-4.992-14.473,0L291.43,72.277
				c-0.845,1.357-1.297,2.918-1.297,4.523v187.733C290.133,269.244,293.956,273.067,298.667,273.067z"/>
			<path d="M469.333,0H384c-4.71,0-8.533,3.823-8.533,8.533s3.823,8.533,8.533,8.533h85.333c12.442,0,25.6,13.158,25.6,25.6v307.2
				c0,12.442-13.158,25.6-25.6,25.6H42.667c-12.442,0-25.6-13.158-25.6-25.6V307.2h452.267c4.71,0,8.533-3.823,8.533-8.533
				s-3.823-8.533-8.533-8.533H8.533c-4.71,0-8.533,3.823-8.533,8.533v51.2c0,21.931,20.736,42.667,42.667,42.667h426.667
				c21.931,0,42.667-20.736,42.667-42.667v-307.2C512,20.736,491.264,0,469.333,0z"/>
			<path d="M238.933,341.333c0,9.412,7.654,17.067,17.067,17.067c9.412,0,17.067-7.654,17.067-17.067
				c0-9.412-7.654-17.067-17.067-17.067C246.588,324.267,238.933,331.921,238.933,341.333z"/>
			<path d="M298.667,460.8c4.71,0,8.533-3.823,8.533-8.533v-34.133c0-4.71-3.823-8.533-8.533-8.533s-8.533,3.823-8.533,8.533v34.133
				C290.133,456.977,293.956,460.8,298.667,460.8z"/>
			<path d="M221.867,452.267v-34.133c0-4.71-3.823-8.533-8.533-8.533c-4.71,0-8.533,3.823-8.533,8.533v34.133
				c0,4.71,3.823,8.533,8.533,8.533C218.044,460.8,221.867,456.977,221.867,452.267z"/>
			<path d="M443.733,460.8h-17.067c-18.825,0-34.133,15.309-34.133,34.133v8.533c0,4.71,3.823,8.533,8.533,8.533h68.267
				c4.71,0,8.533-3.823,8.533-8.533v-8.533C477.867,476.109,462.558,460.8,443.733,460.8z M409.6,494.933
				c0-9.412,7.654-17.067,17.067-17.067h17.067c9.412,0,17.067,7.654,17.067,17.067H409.6z"/>
		</g>
	</g>
</g>
<g>
</g>
<g>
</g>
<g>
</g>
<g>
</g>
<g>
</g>
<g>
</g>
<g>
</g>
<g>
</g>
<g>
</g>
<g>
</g>
<g>
</g>
<g>
</g>
<g>
</g>
<g>
</g>
<g>
</g>
</svg>
