<svg width="144" height="75" viewBox="0 0 144 85" fill="none" xmlns="http://www.w3.org/2000/svg">
<g clip-path="url(#clip0_403_944)">
<path d="M23.296 65.6607C23.296 68.2954 22.36 70.1501 20.488 71.2247C18.616 72.2647 15.8947 72.7847 12.324 72.7847C10.7293 72.7847 9.27333 72.6461 7.956 72.3687C6.63867 72.1261 5.49467 71.7101 4.524 71.1207C3.588 70.4967 2.86 69.6994 2.34 68.7287C1.82 67.7234 1.56 66.4754 1.56 64.9847V58.9007H9.724V65.7647C9.724 67.3247 10.5907 68.1047 12.324 68.1047C13.1907 68.1047 13.832 67.8967 14.248 67.4807C14.6987 67.0301 14.924 66.2847 14.924 65.2447V62.0207C14.924 61.3274 14.768 60.5994 14.456 59.8367C14.1787 59.0741 13.676 58.3981 12.948 57.8087L5.564 51.7767C4.24667 50.7367 3.31067 49.7141 2.756 48.7087C2.20133 47.6687 1.924 46.3687 1.924 44.8087V41.1687C1.924 38.2914 2.82533 36.2981 4.628 35.1887C6.43067 34.0794 9.13467 33.5247 12.74 33.5247C14.3347 33.5247 15.7907 33.6634 17.108 33.9407C18.4253 34.1834 19.552 34.6167 20.488 35.2407C21.4587 35.8301 22.204 36.6274 22.724 37.6327C23.244 38.6034 23.504 39.8341 23.504 41.3247V46.1607H15.34V40.5447C15.34 38.9847 14.4733 38.2047 12.74 38.2047C11.0067 38.2047 10.14 39.0541 10.14 40.7527V43.3007C10.14 43.8207 10.1573 44.2714 10.192 44.6527C10.2613 45.0341 10.3653 45.3807 10.504 45.6927C10.6427 46.0047 10.8333 46.2994 11.076 46.5767C11.3187 46.8194 11.6307 47.0967 12.012 47.4087L19.864 53.7007C21.008 54.6021 21.8573 55.6421 22.412 56.8207C23.0013 57.9994 23.296 59.4207 23.296 61.0847V65.6607ZM31.8606 71.6407V39.3487H24.7366V34.6167H47.7726V39.3487H40.7006V71.6407H31.8606ZM49.8615 71.6407V34.6167H69.3615V39.6607H58.7015V48.9687H69.0495V53.8567H58.7015V66.5447H69.4135V71.6407H49.8615ZM72.5607 71.6407V34.6167H81.4007V66.5447H92.1127V71.6407H72.5607ZM94.2443 71.6407V34.6167H103.084V66.5447H113.796V71.6407H94.2443ZM129.864 71.6407V56.9767H124.664V71.6407H115.772V40.7527C115.772 39.6434 116.067 38.6381 116.656 37.7367C117.245 36.8354 118.043 36.0727 119.048 35.4487C120.088 34.8247 121.301 34.3567 122.688 34.0447C124.109 33.6981 125.635 33.5247 127.264 33.5247C128.859 33.5247 130.349 33.6981 131.736 34.0447C133.123 34.3567 134.319 34.8247 135.324 35.4487C136.364 36.0727 137.179 36.8354 137.768 37.7367C138.357 38.6381 138.652 39.6434 138.652 40.7527V71.6407H129.864ZM129.864 40.5447C129.864 38.9847 128.997 38.2047 127.264 38.2047C125.531 38.2047 124.664 38.9847 124.664 40.5447V52.1407H129.864V40.5447Z" fill="#6ECBF5"/>
<path d="M26.952 28V11.648C26.952 10.864 27.1107 10.2013 27.428 9.66C27.7453 9.11867 28.1747 8.68933 28.716 8.372C29.276 8.05467 29.9293 7.83067 30.676 7.7C31.4413 7.55067 32.2627 7.476 33.14 7.476C33.9987 7.476 34.792 7.55067 35.52 7.7C36.248 7.83067 36.8733 8.064 37.396 8.4C37.9373 8.71733 38.3573 9.14667 38.656 9.688C38.9733 10.2107 39.132 10.8733 39.132 11.676V16.66C39.132 17.332 39.0107 17.9573 38.768 18.536C38.5253 19.096 38.1707 19.5813 37.704 19.992C37.2373 20.4027 36.6587 20.7293 35.968 20.972C35.2773 21.196 34.484 21.308 33.588 21.308C33.028 21.308 32.412 21.252 31.74 21.14V28H26.952ZM34.54 11.256C34.54 10.416 34.0733 9.996 33.14 9.996C32.2067 9.996 31.74 10.416 31.74 11.256V18.704H32.748C33.2333 18.704 33.6533 18.564 34.008 18.284C34.3627 17.9853 34.54 17.5373 34.54 16.94V11.256ZM48.0478 28V21.112C48.0478 19.8427 47.4598 19.208 46.2838 19.208H45.2478V28H40.4598V11.648C40.4598 10.864 40.6185 10.2013 40.9358 9.66C41.2531 9.11867 41.6825 8.68933 42.2238 8.372C42.7838 8.05467 43.4371 7.83067 44.1838 7.7C44.9491 7.55067 45.7705 7.476 46.6478 7.476C47.5065 7.476 48.2905 7.55067 48.9998 7.7C49.7091 7.83067 50.3251 8.064 50.8478 8.4C51.3705 8.71733 51.7718 9.14667 52.0518 9.688C52.3505 10.2107 52.4998 10.8733 52.4998 11.676V14.924C52.4998 15.876 52.2385 16.6133 51.7158 17.136C51.1931 17.64 50.3251 17.9387 49.1118 18.032C50.3251 18.144 51.2118 18.424 51.7718 18.872C52.3505 19.32 52.6398 19.936 52.6398 20.72V28H48.0478ZM48.0478 11.256C48.0478 10.416 47.5811 9.996 46.6478 9.996C45.7145 9.996 45.2478 10.416 45.2478 11.256V16.968H46.2838C46.8438 16.968 47.2731 16.8373 47.5718 16.576C47.8891 16.296 48.0478 15.8293 48.0478 15.176V11.256ZM54.4298 11.648C54.4298 10.864 54.5885 10.2013 54.9058 9.66C55.2232 9.11867 55.6525 8.68933 56.1938 8.372C56.7538 8.05467 57.4072 7.83067 58.1538 7.7C58.9192 7.55067 59.7405 7.476 60.6178 7.476C61.4765 7.476 62.2792 7.55067 63.0258 7.7C63.7725 7.83067 64.4165 8.064 64.9578 8.4C65.5178 8.71733 65.9565 9.14667 66.2738 9.688C66.5912 10.2107 66.7498 10.8733 66.7498 11.676V24.416C66.7498 25.2187 66.5912 25.8907 66.2738 26.432C65.9565 26.9547 65.5178 27.384 64.9578 27.72C64.4165 28.0373 63.7725 28.2613 63.0258 28.392C62.2792 28.5413 61.4765 28.616 60.6178 28.616C59.7405 28.616 58.9192 28.5413 58.1538 28.392C57.4072 28.2613 56.7538 28.0373 56.1938 27.72C55.6525 27.4027 55.2232 26.9733 54.9058 26.432C54.5885 25.8907 54.4298 25.228 54.4298 24.444V11.648ZM62.0178 11.256C62.0178 10.416 61.5512 9.996 60.6178 9.996C59.6845 9.996 59.2178 10.416 59.2178 11.256V24.836C59.2178 25.676 59.6845 26.096 60.6178 26.096C61.5512 26.096 62.0178 25.676 62.0178 24.836V11.256ZM75.4298 8.064H80.2178V24.444C80.2178 25.228 80.0592 25.8907 79.7418 26.432C79.4245 26.9733 78.9858 27.4027 78.4258 27.72C77.8845 28.0373 77.2312 28.2613 76.4658 28.392C75.7192 28.5413 74.9072 28.616 74.0298 28.616C73.1712 28.616 72.3872 28.5413 71.6778 28.392C70.9685 28.2613 70.3525 28.0373 69.8298 27.72C69.3258 27.384 68.9338 26.9547 68.6538 26.432C68.3738 25.8907 68.2338 25.2187 68.2338 24.416V20.244H72.6298V24.836C72.6298 25.676 73.0965 26.096 74.0298 26.096C74.9632 26.096 75.4298 25.676 75.4298 24.836V8.064ZM82.2157 28V8.064H92.7157V10.78H86.9757V15.792H92.5477V18.424H86.9757V25.256H92.7437V28H82.2157ZM97.3783 28V10.612H93.5423V8.064H105.946V10.612H102.138V28H97.3783ZM106.547 11.648C106.547 10.864 106.706 10.2013 107.023 9.66C107.34 9.11867 107.77 8.68933 108.311 8.372C108.871 8.05467 109.524 7.83067 110.271 7.7C111.036 7.55067 111.858 7.476 112.735 7.476C113.594 7.476 114.396 7.55067 115.143 7.7C115.89 7.83067 116.534 8.064 117.075 8.4C117.635 8.71733 118.074 9.14667 118.391 9.688C118.708 10.2107 118.867 10.8733 118.867 11.676V24.416C118.867 25.2187 118.708 25.8907 118.391 26.432C118.074 26.9547 117.635 27.384 117.075 27.72C116.534 28.0373 115.89 28.2613 115.143 28.392C114.396 28.5413 113.594 28.616 112.735 28.616C111.858 28.616 111.036 28.5413 110.271 28.392C109.524 28.2613 108.871 28.0373 108.311 27.72C107.77 27.4027 107.34 26.9733 107.023 26.432C106.706 25.8907 106.547 25.228 106.547 24.444V11.648ZM114.135 11.256C114.135 10.416 113.668 9.996 112.735 9.996C111.802 9.996 111.335 10.416 111.335 11.256V24.836C111.335 25.676 111.802 26.096 112.735 26.096C113.668 26.096 114.135 25.676 114.135 24.836V11.256Z" fill="#C112B0"/>
</g>
<defs>
<clipPath id="clip0_403_944">
<rect width="144" height="85" fill="white"/>
</clipPath>
</defs>
</svg>
